<svg xmlns="http://www.w3.org/2000/svg" width="108" height="26" viewBox="0 0 108 26">
    <defs>
        <linearGradient id="a" x1="50.055%" x2="50.055%" y1="-1.107%" y2="100.347%">
            <stop offset="0%" stop-color="#EEE" stop-opacity=".525"/>
            <stop offset="100%" stop-color="#D8D8D8" stop-opacity="0"/>
        </linearGradient>
    </defs>
    <g fill="none" fill-rule="evenodd">
        <g fill="#343A40" fill-rule="nonzero">
            <path d="M31.8 13c.3.4.5.9.5 1.4 0 .8-.3 1.4-.8 1.8-.5.4-1.3.7-2.2.7H25V7.7h4.2c.9 0 1.7.2 2.2.6.5.4.8 1 .8 1.7 0 .6-.1 1-.4 1.4-.3.4-.7.6-1.2.7.4.2.9.5 1.2.9zm-4.6-1.5h1.5c.8 0 1.2-.3 1.2-1s-.4-1-1.2-1h-1.4v2h-.1zm2.8 2.6c0-.3-.1-.6-.3-.8-.2-.2-.5-.3-.9-.3h-1.6v2.1h1.6c.8 0 1.2-.3 1.2-1zM37.6 10c.4.3.7.6.9 1V9.7h2.2v7.2h-2.2v-1.3c-.2.4-.5.8-.9 1-.4.3-.9.4-1.4.4-.6 0-1.1-.1-1.6-.4-.5-.3-.8-.7-1.1-1.3-.3-.6-.4-1.2-.4-2s.1-1.4.4-2c.3-.6.6-1 1.1-1.3.5-.3 1-.4 1.6-.4.5 0 1 .1 1.4.4zm-1.9 2c-.3.3-.4.7-.4 1.3 0 .6.1 1 .4 1.3.3.3.7.5 1.1.5.5 0 .8-.2 1.1-.5.3-.3.4-.7.4-1.3 0-.5-.1-1-.4-1.3-.3-.3-.7-.5-1.1-.5-.4 0-.8.2-1.1.5zM47 10.3c.5.5.9 1.1 1 1.8h-2c-.1-.3-.2-.5-.4-.7-.2-.2-.5-.3-.8-.3-.3 0-.4.1-.6.2-.1.1-.2.3-.2.5s.1.4.4.5c.2.1.6.2 1.1.3.6.1 1 .3 1.4.4.4.1.7.4.9.7.3.3.4.7.4 1.2 0 .4-.1.8-.3 1.1-.2.3-.5.6-1 .8-.4.2-.9.3-1.5.3-1 0-1.8-.2-2.3-.6-.6-.4-.9-1-1.1-1.9h2.1c0 .3.2.5.4.7.2.2.5.2.9.2.3 0 .4-.1.6-.2.1-.1.2-.3.2-.5s-.1-.4-.4-.5c-.2-.1-.6-.2-1.2-.3-.5-.1-1-.2-1.3-.4-.3-.1-.6-.3-.9-.6-.3-.3-.4-.7-.4-1.2 0-.6.2-1.2.7-1.6.5-.4 1.2-.6 2.1-.6 1 0 1.7.2 2.2.7zM56.2 13.7h-5c0 .5.2.9.4 1.2.3.2.6.4 1 .4.3 0 .6-.1.8-.2.2-.1.4-.4.4-.6h2.3c-.1.5-.3 1-.6 1.4-.3.4-.7.7-1.2.9-.5.2-1 .3-1.6.3-.7 0-1.3-.1-1.9-.4-.5-.3-1-.7-1.3-1.3-.3-.6-.5-1.4-.5-2.1 0-.8.2-1.4.5-2 .3-.6.7-1 1.3-1.3.6-.3 1.2-.4 1.9-.4s1.3.1 1.9.4c.6.3 1 .7 1.3 1.2.3.5.4 1.1.4 1.8 0 .3-.1.5-.1.7zm-2.6-2c-.3-.2-.6-.4-1-.4s-.7.1-1 .4c-.3.3-.4.6-.5 1.1H54c0-.5-.1-.9-.4-1.1zM63 10.4c.6.5 1 1.2 1.2 2.1h-2.3c-.1-.3-.2-.6-.4-.7-.2-.2-.5-.3-.8-.3-.4 0-.7.2-1 .5-.3.3-.4.8-.4 1.3 0 .6.1 1 .4 1.3.3.3.6.5 1 .5.3 0 .6-.1.8-.3.2-.2.4-.4.4-.7h2.3c-.2.9-.6 1.6-1.2 2.1s-1.4.8-2.3.8c-.7 0-1.3-.1-1.9-.4-.5-.3-1-.7-1.3-1.3-.3-.6-.5-1.3-.5-2 0-.8.2-1.4.5-2 .3-.6.7-1 1.3-1.3.6-.3 1.2-.4 1.9-.4.9 0 1.7.2 2.3.8zM69.5 10c.4.3.7.6.9 1V9.7h2.2v7.2h-2.2v-1.3c-.2.4-.5.8-.9 1-.4.3-.9.4-1.4.4-.6 0-1.1-.1-1.6-.4-.5-.3-.8-.7-1.1-1.3-.3-.6-.4-1.3-.4-2 0-.8.1-1.4.4-2 .3-.6.6-1 1.1-1.3.5-.3 1-.4 1.6-.4.6 0 1 .1 1.4.4zm-1.8 2c-.3.3-.4.7-.4 1.3 0 .6.1 1 .4 1.3.3.3.7.5 1.1.5.5 0 .8-.2 1.1-.5.3-.3.4-.7.4-1.3 0-.5-.1-1-.4-1.3-.3-.3-.7-.5-1.1-.5-.4 0-.8.2-1.1.5zM85.6 10.4c.5.5.8 1.3.8 2.3v4.2h-2.2V13c0-.5-.1-.8-.4-1.1-.2-.3-.6-.4-1-.4s-.8.1-1 .4c-.2.3-.4.7-.4 1.1v3.8h-2.2V13c0-.5-.1-.8-.4-1.1-.2-.3-.6-.4-1-.4s-.8.1-1 .4c-.2.3-.4.7-.4 1.2v3.8h-2.2V9.7h2.2v1.2c.2-.4.5-.7.9-1 .4-.2.9-.3 1.4-.3.6 0 1 .1 1.5.4.5.3.7.6 1 1.1.2-.4.6-.8 1-1.1.4-.3.9-.4 1.4-.4.8 0 1.5.3 2 .8zM94 10c.5.3.8.7 1.1 1.3.3.6.4 1.2.4 2s-.1 1.4-.4 2c-.3.6-.6 1-1.1 1.3-.5.3-1 .4-1.6.4-.6 0-1-.1-1.4-.4-.4-.2-.7-.6-.9-1v4.8h-2.2V9.7h2.2V11c.2-.4.5-.8.9-1 .4-.3.9-.4 1.4-.4.6 0 1.1.1 1.6.4zm-3.5 2c-.3.3-.4.7-.4 1.3 0 .5.1 1 .4 1.3.3.3.7.5 1.1.5.5 0 .9-.2 1.1-.5.3-.3.4-.7.4-1.3 0-.6-.1-1-.4-1.3-.3-.3-.7-.5-1.1-.5-.4 0-.8.2-1.1.5zM98.8 7.7V13c0 .6.1 1.1.4 1.4.3.3.7.5 1.2.5s.9-.2 1.2-.5c.3-.3.4-.8.4-1.4V7.7h2.2V13c0 .9-.2 1.6-.5 2.2-.3.6-.8 1-1.4 1.3-.6.3-1.2.4-2 .4s-1.4-.1-1.9-.4c-.6-.3-1-.7-1.3-1.3-.3-.6-.5-1.3-.5-2.2V7.7h2.2zM107.9 7.7v9.2h-2.2V7.7z"/>
        </g>
        <path d="M.9 9.2l3.4-1.1L10.2 0l6.4 6.3 2.9 7.2-7.2 7-2.1 5L2.6 17 0 13.5z"/>
        <path fill="#523CBB" fill-rule="nonzero" d="M10.2.2v7.2l6.3-1.1z"/>
        <path fill="#8169F4" fill-rule="nonzero" d="M10.2.2v7.2l-5.7.7z"/>
        <path fill="#9A89ED" fill-rule="nonzero" d="M1 9.3l3.5 4.9V8.1z"/>
        <path fill="#9380EE" fill-rule="nonzero" d="M10.2 7.3l-5.7 6.9 1.6.6 10.1-.8z"/>
        <path fill="#6148D9" fill-rule="nonzero" d="M10.2 7.4l6.3-1 1.3 7-1.6.6z"/>
        <path fill="#4F3BB0" fill-rule="nonzero" d="M19.3 13.3h-1.6l-1.3-7z"/>
        <path fill="#664EDD" fill-rule="nonzero" d="M4.5 14.3l-4.3-.8.9-4.2z"/>
        <path fill="#5B42D6" fill-rule="nonzero" d="M4.5 14.3l5.7-6.9-5.7.7z"/>
        <path fill="#513ABB" fill-rule="nonzero" d="M6.2 14.9l4.1 10.4-7.5-8-2.6-3.7 4.4.8z"/>
        <path fill="#4633A3" fill-rule="nonzero" d="M10.1 25.2l1.9-4.8 4-6.5-7.4 7z"/>
        <path fill="#3B2C86" fill-rule="nonzero" d="M12 20.4l3.8-6.5 1.9-.6h1.5z"/>
        <path fill="#5C3DF1" fill-rule="nonzero" d="M8.5 21l7.4-6.9-9.7.8z"/>
        <path fill="#BEB2F9" fill-rule="nonzero" d="M1 9.3l3.5-2.8L10.2.2 4.5 8.1z"/>
        <path fill="#6C50F3" fill-rule="nonzero" d="M6.2 14.9l9.6-.8.4-.2-5.9-6.6z"/>
        <path fill="#E6E4FF" fill-rule="nonzero" d="M7 3.8L10.2.2h.1L12 2l-1 .5h-.9l-1.5 1L7 4.7l-.7.9-.9.7-.9 1.4.5-.9-.3.1.2-.8.7-.7z"/>
        <path fill="#A8A6C9" fill-rule="nonzero" d="M7.1 4.7l1.1-2.3 2-2.2v.3l.1 1.9-1.5 1-.5 1.3z"/>
        <path fill="#F6F6FF" fill-rule="nonzero" d="M8.8 3.5l.2-2L10.1.2h.1l.1 2.2-.1.1L9.6 4l-.2-.1z"/>
        <path fill="url(#a)" fill-rule="nonzero" d="M2.9 17.3L.2 13.5l4.3.8 1.6.6 9.6-.6.3-.4 1.7-.5h1.6L15.6 17 12 20.4 10.2 25z"/>
    </g>
</svg>
