<svg xmlns="http://www.w3.org/2000/svg" width="26" height="34" viewBox="0 0 26 34">
    <defs>
        <linearGradient id="a" x1="50%" x2="50%" y1="0%" y2="100%">
            <stop offset="0%" stop-color="#EEE" stop-opacity=".525"/>
            <stop offset="100%" stop-color="#D8D8D8" stop-opacity="0"/>
        </linearGradient>
    </defs>
    <g fill="none" fill-rule="nonzero">
        <path d="M1.223 12.267l4.56-1.525L13.516 0l8.519 8.318 3.84 9.54-9.61 9.267-2.75 6.645L3.437 22.518 0 17.858z"/>
        <path fill="#523CBB" d="M13.522.264v9.608l8.391-1.413z"/>
        <path fill="#8169F4" d="M13.56.264V9.76L5.95 10.82z"/>
        <path fill="#9A89ED" d="M1.352 12.391l4.626 6.564v-8.172z"/>
        <path fill="#9380EE" d="M13.49 9.756l-7.54 9.198 2.142.787 13.394-1.164z"/>
        <path fill="#6148D9" d="M13.522 9.771l8.315-1.333 1.705 9.245-2.163.794z"/>
        <path fill="#4F3BB0" d="M25.685 17.675h-2.158l-1.69-9.243z"/>
        <path fill="#664EDD" d="M5.968 18.978L.27 17.948l1.231-5.555z"/>
        <path fill="#5B42D6" d="M5.95 18.96l7.545-9.204-7.545 1.055z"/>
        <path fill="#513ABB" d="M8.203 19.751l5.454 13.77-9.927-10.67-3.46-4.92 5.781 1.06z"/>
        <path fill="#4633A3" d="M13.468 33.403l2.474-6.358 5.25-8.587-9.834 9.27z"/>
        <path fill="#3B2C86" d="M15.956 27.062l5.103-8.574 2.545-.821h1.978z"/>
        <path fill="#5C3DF1" d="M11.298 27.886l9.769-9.164-12.885.996z"/>
        <path fill="#BEB2F9" d="M1.352 12.402L5.988 8.65 13.55.258 5.988 10.79z"/>
        <path fill="#6C50F3" d="M8.188 19.763l12.688-.998.494-.281-7.855-8.728z"/>
        <path fill="#E6E4FF" d="M9.257 4.994L13.48.264h.108l2.379 2.372-1.276.65h-1.15L11.517 4.6 9.257 6.292 8.314 7.49l-1.107.867-1.257 1.82.66-1.205-.419.18.283-1.092.88-.93z"/>
        <path fill="#A8A6C9" d="M9.465 6.256l1.5-3.08L13.58.264l.027.457.078 2.554-2 1.34-.72 1.641z"/>
        <path fill="#F6F6FF" d="M11.629 4.635l.326-2.624L13.477.267l.098.033.115 2.97-.152.1-.82 1.937-.292-.18z"/>
        <path fill="url(#a)" d="M3.856 22.968L.303 17.874l5.675 1.1 2.172.766 12.734-.861.415-.499 2.237-.702 2.075-.056-4.929 4.828-4.712 4.577-2.484 6.22z"/>
    </g>
</svg>
